<?xml version="1.0" encoding="iso-8859-1"?>
<!-- Generator: Adobe Illustrator 19.0.0, SVG Export Plug-In . SVG Version: 6.00 Build 0)  -->
<svg version="1.1" id="Capa_1" xmlns="http://www.w3.org/2000/svg" xmlns:xlink="http://www.w3.org/1999/xlink" x="0px" y="0px"
	 viewBox="0 0 512 512" style="enable-background:new 0 0 512 512;" xml:space="preserve">
<path style="fill:#EDA500;" d="M501.727,452.618L358.68,309.571c53.543-76.77,46.082-183.171-22.387-251.681
	C259.17-19.28,134.907-19.299,57.761,57.847c-76.902,76.902-76.902,201.585,0.001,278.487
	c68.509,68.509,174.938,75.985,251.724,22.431l143.047,143.047c13.584,13.584,35.609,13.584,49.194,0l0,0
	C515.311,488.227,515.311,466.202,501.727,452.618z M304.982,304.233c-59.404,59.404-155.716,59.404-215.119,0
	s-59.404-155.716,0-215.119c59.404-59.404,155.716-59.404,215.119,0C364.385,148.517,364.385,244.829,304.982,304.233z"/>
<path style="fill:#FAEFCA;" d="M400.104,350.995l-51.527,46.86l103.956,103.956c13.584,13.584,35.609,13.584,49.194,0l0,0
	c13.584-13.584,13.584-35.609,0-49.194L400.104,350.995z"/>
<path style="fill:#F6D36C;" d="M415.521,366.412l-56.841-56.841c0,0-14.15,18.475-25.05,28.672
	c-10.901,10.197-24.143,20.522-24.143,20.522l56.841,56.841L415.521,366.412z"/>
<g>
</g>
<g>
</g>
<g>
</g>
<g>
</g>
<g>
</g>
<g>
</g>
<g>
</g>
<g>
</g>
<g>
</g>
<g>
</g>
<g>
</g>
<g>
</g>
<g>
</g>
<g>
</g>
<g>
</g>
</svg>
